# xmcd
#
# Track frame offsets: 
#        150
#        19518
#        34074
#        53241
#        73256
#        88371
#        110241
#        123442
#        138955
#
# Disc length: 2054 seconds
#
# Revision: 0
# Processed by: cddbd v1.5.2PL0 Copyright (c) Steve Scherf et al.
# Submitted via: ExactAudioCopyFreeDBPlugin 1.0
#
DISCID=82080409
DTITLE=Kermit Lynch - Quicksand Blues
DYEAR=2005
DGENRE=Blues
TTITLE0=December Rain
TTITLE1=Dirt Road
TTITLE2=Awake for the Count
TTITLE3=Back to Memphis
TTITLE4=Death Chill
TTITLE5=Quicksand Blues
TTITLE6=Live It Up
TTITLE7=Country Living
TTITLE8=It's Cold
EXTD=
EXTT0=
EXTT1=
EXTT2=
EXTT3=
EXTT4=
EXTT5=
EXTT6=
EXTT7=
EXTT8=
PLAYORDER=
